<?xml version="1.0" standalone="no"?>
<!DOCTYPE svg PUBLIC "-//W3C//DTD SVG 20010904//EN"
 "http://www.w3.org/TR/2001/REC-SVG-20010904/DTD/svg10.dtd">
<svg version="1.0" xmlns="http://www.w3.org/2000/svg"
 width="80.000000pt" height="100.000000pt" viewBox="0 0 400.000000 500.000000"
 preserveAspectRatio="xMidYMid meet">

<g transform="translate(0.000000,500.000000) scale(0.100000,-0.100000)"
fill="#3f4c6b" stroke="none">
<path d="M1205 4993 c-98 -22 -172 -80 -214 -166 l-31 -62 -100 -1457 c-55
-801 -100 -1473 -100 -1492 l0 -36 200 0 c110 0 200 1 201 3 0 1 38 586 84
1300 91 1416 82 1331 148 1381 28 21 35 21 595 21 l567 0 31 -22 c60 -43 59
-36 104 -743 22 -360 43 -670 46 -688 5 -32 10 -27 141 165 75 109 156 228
180 264 l44 67 -40 593 c-22 327 -46 617 -51 646 -11 50 -52 119 -94 156 -12
10 -46 30 -76 45 l-55 27 -780 1 c-429 1 -789 0 -800 -3z"/>
<path d="M3764 4460 c-22 -8 -642 -904 -651 -939 -4 -17 24 -441 30 -447 4 -4
808 1171 826 1206 23 46 8 72 -71 127 -82 57 -104 65 -134 53z"/>
<path d="M1616 4168 c-3 -13 -36 -531 -75 -1153 -39 -621 -74 -1154 -77 -1182
l-5 -53 224 0 225 0 277 406 278 406 -47 736 c-25 405 -49 765 -52 800 l-6 62
-369 0 -369 0 -4 -22z"/>
<path d="M2981 2820 c-85 -124 -167 -244 -184 -268 l-29 -43 23 -365 23 -364
203 0 c138 0 203 3 203 11 0 6 -18 270 -40 587 -21 317 -41 597 -42 622 l-3
45 -154 -225z"/>
<path d="M2377 1939 l-107 -159 121 0 121 0 -7 148 c-4 81 -10 152 -14 158 -3
6 -54 -60 -114 -147z"/>
<path d="M730 1443 c0 -21 -11 -190 -24 -375 -17 -234 -21 -350 -15 -379 13
-57 42 -109 81 -145 61 -58 92 -68 221 -72 l117 -4 0 -193 c0 -179 1 -194 21
-219 20 -25 24 -26 125 -26 151 0 144 -11 144 240 l0 200 588 -2 587 -3 5
-203 c6 -245 -2 -232 141 -232 145 0 138 -11 141 235 l3 200 115 5 c94 4 124
9 162 28 90 45 148 141 148 246 0 55 -36 599 -46 684 l-5 52 -1255 0 -1254 0
0 -37z"/>
</g>
</svg>
