<?xml version="1.0" standalone="no"?>
<!DOCTYPE svg PUBLIC "-//W3C//DTD SVG 20010904//EN"
 "http://www.w3.org/TR/2001/REC-SVG-20010904/DTD/svg10.dtd">
<svg version="1.0" xmlns="http://www.w3.org/2000/svg"
 width="200.000000pt" height="200.000000pt" viewBox="0 0 500.000000 500.000000"
 preserveAspectRatio="xMidYMid meet">

<g transform="translate(0.000000,500.000000) scale(0.100000,-0.100000)"
fill="#000000" stroke="none">
<path d="M1425 4831 c-52 -13 -111 -49 -145 -87 -71 -81 -61 5 -165 -1491 -52
-752 -95 -1385 -95 -1405 l0 -38 190 0 c136 0 190 3 190 11 0 28 150 2359 154
2403 6 57 25 90 69 117 31 19 50 19 565 17 l534 -3 33 -37 c19 -20 37 -47 40
-60 2 -13 23 -309 45 -658 23 -349 42 -635 44 -637 1 -1 78 108 171 243 l168
247 -22 331 c-55 806 -58 840 -81 889 -12 25 -42 65 -66 87 -87 80 -30 75
-859 77 -407 1 -753 -2 -770 -6z"/>
<path d="M3832 4323 c-11 -10 -151 -210 -311 -445 l-292 -427 15 -207 c9 -114
17 -209 19 -211 5 -4 773 1116 783 1140 14 36 -6 64 -82 115 -84 56 -101 61
-132 35z"/>
<path d="M1829 4078 c-5 -12 -146 -2255 -142 -2260 2 -5 96 -8 208 -8 l204 0
262 383 261 382 -46 730 c-25 402 -46 740 -46 753 l0 22 -350 0 c-192 0 -350
-1 -351 -2z"/>
<path d="M3196 2917 c-26 -40 -102 -151 -167 -247 l-119 -175 22 -340 23 -340
194 -3 193 -2 -5 32 c-3 18 -23 284 -43 591 -21 306 -41 557 -44 557 -3 -1
-27 -33 -54 -73z"/>
<path d="M2551 1973 c-51 -75 -95 -143 -98 -150 -4 -10 18 -13 106 -13 l112 0
-7 128 c-11 194 -5 192 -113 35z"/>
<path d="M996 1508 c-3 -13 -15 -175 -27 -361 -21 -318 -21 -342 -6 -390 22
-69 66 -120 132 -152 43 -22 73 -28 154 -32 l101 -6 0 -179 c0 -177 0 -179 25
-203 22 -23 32 -25 113 -25 135 0 132 -4 132 225 l0 185 555 0 555 0 0 -184 0
-185 26 -20 c39 -31 179 -31 218 0 l26 20 0 183 0 183 99 6 c152 8 229 50 277
152 30 62 30 94 4 460 -11 154 -20 295 -20 313 l0 32 -1180 0 -1180 0 -4 -22z"/>
</g>
</svg>
